<?xml version="1.0" encoding="UTF-8"?><svg xmlns="http://www.w3.org/2000/svg" viewBox="0 0 408.76 171.5"><defs><style>.c{fill:#392e44;}.d{fill:#eb96b7;}.e{fill:#9ea6ce;}.f{fill:#f2e7df;}.g{fill:#867a99;}</style></defs><g id="a"><path class="c" d="M268.78,167.82c-2.57-.53-5.13-1.12-7.71-1.55-2.36-.4-4.74-.62-7.12-.92-2.96-.37-5.59-1.34-7.13-4.01-.74-.16-1.29-.34-1.86-.39-5.92-.44-9.43-5.64-8.48-11.63,.48-3.03,1-6.05,1.38-9.09,.3-2.38,1.6-4.02,3.48-5.34,1.25-.88,2.45-1.82,3.7-2.75,.19-.95,.38-1.88,.58-2.9-.75-1.93-1.9-3.55-3.66-4.92-3.72-2.92-6.87-6.42-9.45-10.4-.56-.87-.93-1.87-1.25-2.51-6.14,2.22-12.29,4.45-18.78,6.8,.14,.9,.36,2.28,.57,3.67,.84,5.71-.26,10.87-5.33,14.18-2.07,1.35-4.79,1.98-7.3,2.33-5.98,.83-12,1.42-18.02,1.86-4.4,.32-8.09-1.34-10.67-5.03-.64-.92-1.32-1.96-1.5-3.03-.86-5.19-1.49-10.42-2.34-15.61-.33-2.01-.15-4.23-1.7-6.05l-2.35,.41c-.42,1.33-.89,2.59-1.21,3.88-1.23,5.02-2.46,10.04-3.58,15.09-1.38,6.26-4.94,10.03-11.22,10.57-3.05,.26-6.24-.65-9.33-1.25-3.2-.62-6.33-1.56-9.51-2.26-3.09-.68-5.8-2.12-8.14-4.14-2.82-2.43-3.82-5.78-3.33-9.35,.47-3.39,1.42-6.72,2.16-10.08,.08-.27,.16-.54,.36-1.23l-.89,.76c-6.11,4.82-12.84,3.31-19.77,1.88-.23,.83-.35,1.77-.73,2.6-.71,1.54-1.23,3.37-2.42,4.45-4.19,3.8-8.36,7.73-13.03,10.86-4.95,3.32-11.26,4.52-16.43-.21-1.75-1.6-3.79-2.89-5.87-4.45-.01,5.17-1.74,9.25-5.85,12.13-.77,.54-1.65,1-2.55,1.25-6.37,1.8-12.82,3.34-19.12,5.34-6.5,2.06-13.04-3.46-14.37-8.34-3.99-14.7-8.16-29.35-12.24-44.02-2.18-7.84-4.37-15.69-6.51-23.54-1.36-5.01,2.15-11.33,7.16-12.77,6.73-1.94,13.47-3.83,20.24-5.61,3.46-.91,6.63,.09,9.51,2.11,.79,.55,1.57,1.11,2.45,1.73,2.09-2.43,4.17-4.91,6.33-7.32,3.93-4.39,8.79-6.08,14.52-4.53,1.8,.48,3.56,1.39,5.13,2.41,4.16,2.72,8.2,5.61,12.29,8.43,16.6-17.28,44.6-15.51,57.39-1.47,7.2-10.08,20.5-12.49,30.36-7.01,6.09-.85,11.6-1.52,17.06-2.43,2.52-.42,5.04-1.1,7.42-2.03,9.01-3.52,18.1-3.4,27.35-1.12,6.68,1.65,12.58,4.71,17.45,9.51,4.18,4.12,7.62,8.83,9.69,14.62,6.56-3.96,13.67-5.19,21.02-4.68,3.39,.23,6.73,1.36,10.08,2.15,4.17,.99,8.31,2.05,12.63,3.12-1.36-9.97,.9-18.35,9.19-24.26,8.24-5.88,16.92-5.62,26.07-1.09,.05-4.93,.04-9.67,.18-14.4,.1-3.34,.17-6.71,.71-10,.27-1.67,1.27-3.44,2.42-4.72,2.7-2.99,5.68-5.72,8.58-8.54,2.27-2.21,5.18-2.95,8.17-2.96,10-.05,20.01,.06,30.02,.13,1.24,0,2.48,.19,3.72,.32,6.05,.6,8.6,4.93,8.75,9.98,.24,7.68,.08,15.37-.08,23.05-.09,3.95-1.52,7.3-4.71,10.04-3.76,3.23-7.1,6.95-10.96,10.8,4.8-.86,9.11-1.67,13.44-2.41,7.62-1.3,14.99,1.46,18.4,8.96,2.91,6.42,4.43,13.23,5.69,20.11,.19,.94,.39,1.87,.58,2.81l.21,7.49c-.3,.73-.72,1.44-.87,2.2-1.25,6.18-4.96,9.94-11.06,11.44-6.14,1.51-12.27,3.09-18.41,4.63-2.46,.61-4.93,1.17-8.06,1.92,3.06,1.91,5.73,3.13,7.82,4.99,2.31,2.05,3.03,5.15,2.62,8.14-.4,2.9-1.12,5.86-2.3,8.54-1.24,2.8-3.69,4.61-6.92,5.08-1.72,4.62-4.91,7.52-9.76,8.33-.35,.46-.59,.89-.94,1.2-3.18,2.85-6.04,6.18-10.54,7.04-3.37,.64-6.8,1.04-10.09,1.95-4.68,1.3-9.05,1.29-13.11-1.76-4.97,.62-9.9,1.24-15.08,1.89-2.17,4.47-6.2,6.54-11.1,6.43-4.56-.1-9.08-.97-12.13-5.2-2.34,6.08-5.17,7.59-12.44,7.2-2.42,.93-4.44,1.71-6.45,2.49l-1.15,.03ZM50.52,93.19c6.81-8.31,13.63-16.62,20.43-24.95,1.79-2.19,1.63-3.36-.61-4.99-3.58-2.59-7.16-5.17-10.79-7.69-.9-.63-1.98-1-2.91-1.46-.81,.57-1.38,.92-1.88,1.35-.51,.43-1.01,.9-1.4,1.44-5.22,7.11-10.43,14.24-15.65,21.35-.4,.54-.88,1.02-1.53,1.76-.9-3.22-1.66-6-2.45-8.76-.79-2.74-1.6-5.48-2.36-8.07-2.67-.51-18.23,3.74-20.52,5.46-.02,3.01,17.69,65.75,19.34,67.95,6.58-1.56,13.26-3.33,20.17-5.71-2.65-9.6-5.2-18.79-7.72-27.93l2.77-3.24c1.6,1.32,3.1,2.49,4.52,3.75,7.55,6.68,15.06,13.39,22.62,20.06,.82,.72,1.85,1.2,2.78,1.79,.98-.67,1.73-1.1,2.39-1.64,3.16-2.65,6.3-5.33,9.42-8.02,2.3-1.98,2.46-2.92,.63-5.3-6.29-8.18-13.52-15.44-21.94-21.43-1.43-1.02-3.21-1.55-4.74-2.27-3.73,2.61-7.11,4.97-10.49,7.33l-.07-.77Zm151.51,34.47c.26-1.16,.67-2.06,.61-2.92-.18-2.29-.59-4.56-.86-6.85-.4-3.39-.76-6.78-1.16-10.38,.94,.02,1.49,0,2.04,.04,5.15,.33,10.1-.58,14.98-2.2,19.72-6.53,23.07-27.2,14.23-41.54-7.5-12.18-22.88-16.11-35.51-12.5-3.75,1.07-7.2,3.1-11.26,3.29-3.35,.15-6.69,.68-10.01,1.15-1.15,.16-2.26,.63-3.33,.94-.03,1.05-.12,1.63-.05,2.18,.44,3.9,.89,7.81,1.36,11.71,1.2,9.8,2.45,19.59,3.63,29.39,1.06,8.85,2.03,17.71,3.1,26.56,.14,1.14,.68,2.23,1.1,3.56,7.19-.83,13.94-1.61,21.15-2.44Zm96.1-47.71c-.82-.6-1.43-1.39-2.17-1.53-6.15-1.22-12.12-3.52-19.01-3.56-3.13-1.62-6.88-2.91-10.95-3.5-18.33-2.68-30.24,15.86-27.08,29.78,3.09,13.61,17.22,22.89,32.03,20.23,1.68-.3,3.33-.75,4.93-1.12,3.25,3.27,6.71,5.9,11.48,6.88,3.66-3.73,6.19-8.21,9.17-12.47-.53-.69-.84-1.32-1.34-1.7-2.34-1.74-3.07-4.24-2.85-6.88,.3-3.61,.79-7.25,1.61-10.78,1.16-5.03,2.69-9.98,4.18-15.36Zm-190.47,6.84c2.93,.95,5.91,.54,8.84,.29,3.72-.32,7.48-.56,10.87-2.39,2.54-1.37,4.19-3.41,4.31-6.34,.1-2.46,.27-4.99-.18-7.38-1.16-6.27-4.02-11.46-10.02-14.57-5.23-2.72-10.73-3.16-16.47-2.92-11.86,.52-21.37,8.03-23.92,19.6-2.07,9.39,.47,17.64,7.34,24.43,5.62,5.56,12.78,7.52,20.37,8.19,2.22,.2,4.14-.65,5.19-2.87,1.11-2.33,2.36-4.6,3.38-6.97,.42-.99,.37-2.17,.58-3.49-1.14-.42-1.97-.85-2.86-1.02-1.31-.25-2.68-.24-4-.47-7.49-1.3-12.52-6.49-11.75-14.39,.45-4.65,4.13-7.94,8.23-7.46,2.64,.3,3.86,1.42,4.49,4.41-2.22,.56-4.47,1.12-6.61,1.66-.39,2.58,.62,7.92,2.22,11.68Zm291.76,.52c-.68-7.48-2.04-14.43-4.79-21.03-2.06-4.96-4.48-6.2-9.74-5.21-6.51,1.23-13.03,2.4-19.5,3.78-5.34,1.14-10.64,2.51-15.93,3.89-2.65,.69-4.78,2.15-5.26,5.08-.25,1.5-.35,3.07-.23,4.59,.53,6.72,2,13.25,4.21,19.62,1.86,5.36,4.15,6.92,9.75,6.11,12.36-1.79,24.53-4.55,36.55-7.92,2.57-.72,4.36-2.4,4.63-5.27,.12-1.33,.23-2.67,.32-3.64Zm-94.18-8.11c-.26,3.64,8.51,40.97,10.2,44.27,2.18,.38,15.87-2.64,19.35-4.26,.56-2.85-8.55-41.75-10.62-44.42-6.17,1.43-12.55,2.92-18.93,4.4Zm-177.12,46.32c6.15,1.62,11.79,3.13,17.45,4.56,.66,.17,1.44-.1,2.09-.16,.26-.59,.46-.93,.56-1.28,3.43-13.15,6.87-26.31,10.26-39.47,.22-.87,.07-1.83,.1-2.99-6.32-1.64-12.42-3.23-18.93-4.92-.52,1.02-1.2,1.93-1.47,2.95-3.34,12.78-6.62,25.58-9.88,38.39-.22,.86-.13,1.8-.19,2.93ZM333.1,18.32c-.04,10.93-.08,21.73-.12,33.01l10.69-.3,.25,9.08c3.19-3.11,6.12-5.97,9.04-8.82l7.51-.21c5.45-5.38,10.85-10.7,16.34-16.11,.06-8.41,.11-16.82,.17-25.51-11.76-.06-23.27-.11-34.66-.17-3.12,3.05-6.06,5.94-9.22,9.03Zm-21.5,54.89c6.18,.11,12.66-5.44,12.45-13.1-.17-6.21-4.7-12.76-13.34-12.5-7.98,.24-12.7,6.56-12.43,13.41,.3,7.47,6.94,12.65,13.32,12.19Zm-169.9-5.88c.16,7.14,5.93,12.66,13.04,12.49,7.03-.17,12.63-6.09,12.45-13.15-.18-6.95-5.92-12.39-12.96-12.27-7.22,.12-12.69,5.77-12.53,12.94Zm118.62,67.22l-2.85-.73,.18-3.08-3.03,.08c-.14,.91-.27,1.73-.4,2.58l2.94,.99c-.15,.95-.28,1.76-.42,2.69l-2.93,.08c-.19,.97-.36,1.79-.54,2.7l-2.81-.26c-.33,1.05-.6,1.92-.89,2.86l-2.9,.08c-.41,3.07-.82,6.05-1.24,9.21,1.14,.19,2.05,.33,3.05,.5,.36-2.2,.68-4.15,1.04-6.34,1.05,.21,1.94,.39,2.89,.59-.24,2.12-.46,4.06-.67,5.97l2.78,.82,.08,3.03c2.05,.25,3.99,.49,6.14,.76l.15-3.15-5.93-.98c.11-.98,.19-1.8,.32-2.97,5.24,.69,10.29,1.36,15.63,2.06l-.78,2.96c-2.16-.18-4.03-.33-6.07-.5-.08,1.14-.13,1.95-.2,3.03,2.1,.24,4.03,.46,5.94,.68,.34-1.16,.57-1.94,.81-2.79l2.87-.08c.35-2.09,.68-4.03,1.04-6.16,1.17,.31,2.05,.54,2.85,.75-.26,2.12-.49,3.99-.73,6.03l3.13,.28,1.23-9.13c-1.15-.34-2.02-.6-2.91-.87l-.08-2.77-2.54-.83-.08-2.98-2.87-.46c.24-1.02,.44-1.88,.65-2.78l2.93-.08c.14-.98,.28-1.89,.44-3.04-1.17-.09-2.09-.17-3.11-.25-.22,1.09-.41,1.99-.6,2.94-1.06-.05-1.98-.09-2.9-.14l-.69,2.89c-2.98-.37-5.87-.72-8.81-1.08l-.09-3.1Zm78.6,4.52c1.95-.64,3.51-1.15,5.35-1.76-.11,1.09-.16,1.62-.21,2.07-1.34,.47-2.49,.87-3.77,1.31,.1,1.21,.19,2.21,.29,3.35l2.95-.08c.2,.66,.36,1.17,.56,1.85,1.67-.4,3.23-.78,4.66-1.12,.39-.93,.68-1.62,.94-2.22,1.13-.37,2.11-.69,3.18-1.03,.03-.66,.09-1.22,.06-1.77-.04-.75-.16-1.49-.27-2.42l-3.19,.33c-.05-.54-.09-1.01-.15-1.48-.45-3.71-1.73-4.53-5.16-3.27-1.87,.68-3.71,1.42-5.77,2.21l-.54-2.03c3.38-1.84,6.62-3.6,9.98-5.43-.78-1.4-1.37-2.46-2.08-3.74-2.88,1.46-5.6,2.84-8.36,4.24-.53-.34-1.05-.68-1.5-.96-1.61,.45-3.07,.86-4.55,1.27,.09,1.09,.17,1.91,.24,2.75-1.4,.82-2.69,1.58-4.12,2.42,.78,1.4,1.41,2.53,2.04,3.68,1.18-.48,2.1-.86,3.48-1.42,.45,4.08,.86,7.81,1.27,11.59,1.7-.31,3.18-.59,4.87-.9l-.21-7.43Zm-30.25,4c-2-.25-3.6-.46-5.22-.67l-.05-1.8c1.35,.18,2.55,.35,4.1,.56,.2-1.47,.39-2.79,.57-4.1-1.8-.45-3.25-.81-4.6-1.15-.16-1.37-.29-2.47-.42-3.61l-5.15-.23c-.26,1.05-.45,1.85-.66,2.71l-3.87-.48c-.26,1.5-.47,2.76-.71,4.11,1.79,.41,3.25,.75,4.81,1.1-.04,.78-.07,1.4-.1,2.19-2.14-.13-4.09-.24-6.08-.36l-.37,4.18c2.27,.3,4.4,.58,6.43,.84l.17,6.17c1.63,.18,3.12,.34,4.8,.53,.31-2.18,.59-4.11,.87-6.1,1.77,.09,3.37,.16,5.22,.25,.09-1.47,.16-2.67,.26-4.16Zm52.61-6.93c.52-6.48-2.6-14.6-8.04-21.21-1.53,.91-3.1,1.85-4.81,2.86,3.11,6.43,7.89,11.85,7.17,19.73,2.24-.55,3.94-.96,5.67-1.38Zm-48.26,10.21c5.82-.79,11.29-1.53,17.01-2.31-.27-1.84-.49-3.39-.76-5.22-5.82,.77-11.27,1.48-16.95,2.23,.26,1.99,.47,3.54,.7,5.29Zm47.77-20.02c3.06,.86,5.66,1.58,8.7,2.43,.45-2.04,.82-3.71,1.24-5.6-3.06-.63-5.71-1.17-8.57-1.76-.47,1.7-.86,3.12-1.36,4.93Z"/><path class="e" d="M408.55,83.8c-.19-.94-.39-1.87-.58-2.81,.17,0,.34-.03,.5-.07l.08,2.88Z"/><path class="e" d="M202.03,127.66c-7.2,.83-13.95,1.61-21.15,2.44-.42-1.33-.96-2.42-1.1-3.56-1.07-8.85-2.04-17.71-3.1-26.56-1.18-9.8-2.43-19.59-3.63-29.39-.48-3.9-.93-7.8-1.36-11.71-.06-.56,.02-1.13,.05-2.18,1.07-.31,2.18-.78,3.33-.94,3.33-.47,6.66-.99,10.01-1.15,4.06-.19,7.5-2.22,11.26-3.29,12.64-3.61,28.01,.32,35.51,12.5,8.83,14.34,5.49,35.01-14.23,41.54-4.87,1.61-9.83,2.53-14.98,2.2-.55-.04-1.11-.02-2.04-.04,.4,3.6,.76,6.99,1.16,10.38,.27,2.28,.69,4.56,.86,6.85,.07,.86-.35,1.77-.61,2.92Zm-3.74-38.38c3.75,1.11,7.38,.8,9.97-.53,6.62-3.38,6.07-13.44,.35-17.12-3.94-2.54-7.99-2.07-12.47-.57,.72,6.11,1.43,12.15,2.15,18.23Z"/><path class="f" d="M50.6,93.96c3.38-2.36,6.75-4.72,10.49-7.33,1.53,.72,3.31,1.25,4.74,2.27,8.43,6,15.65,13.25,21.94,21.43,1.83,2.38,1.66,3.32-.63,5.3-3.12,2.7-6.27,5.37-9.42,8.02-.65,.55-1.41,.98-2.39,1.64-.93-.59-1.96-1.06-2.78-1.79-7.56-6.66-15.07-13.38-22.62-20.06-1.42-1.26-2.92-2.43-4.52-3.75l-2.77,3.24c2.53,9.14,5.07,18.34,7.72,27.93-6.91,2.38-13.59,4.15-20.17,5.71-1.65-2.2-19.37-64.94-19.34-67.95,2.29-1.72,17.85-5.97,20.52-5.46,.76,2.59,1.57,5.32,2.36,8.07,.79,2.76,1.55,5.53,2.45,8.76,.65-.74,1.13-1.22,1.53-1.76,5.22-7.12,10.42-14.24,15.65-21.35,.39-.53,.89-1,1.4-1.44,.5-.43,1.08-.78,1.88-1.35,.93,.46,2.01,.83,2.91,1.46,3.63,2.52,7.21,5.1,10.79,7.69,2.25,1.62,2.4,2.8,.61,4.99-6.8,8.32-13.62,16.63-20.43,24.95l-1.28,.41,.72,.72,.63-.36Z"/><path class="f" d="M298.14,79.95c-1.48,5.38-3.01,10.32-4.18,15.36-.82,3.53-1.31,7.16-1.61,10.78-.22,2.64,.51,5.14,2.85,6.88,.5,.37,.81,1.01,1.34,1.7-2.98,4.26-5.51,8.74-9.17,12.47-4.77-.99-8.22-3.62-11.48-6.88-1.6,.37-3.25,.82-4.93,1.12-14.8,2.66-28.93-6.62-32.03-20.23-3.16-13.92,8.74-32.46,27.08-29.78,4.07,.59,7.82,1.88,10.95,3.5,6.89,.04,12.85,2.34,19.01,3.56,.74,.15,1.36,.94,2.17,1.53Zm-24.75,11.27c-2.28-3.43-6.13-4.57-9.69-2.82-4.22,2.08-6.47,7.85-4.79,12.34,1.36,3.64,5.57,6.95,12.62,5,.6-4.72,1.21-9.46,1.86-14.52Z"/><path class="e" d="M107.67,86.79c-1.59-3.76-2.61-9.09-2.22-11.68,2.15-.54,4.39-1.1,6.61-1.66-.62-2.99-1.85-4.11-4.49-4.41-4.11-.47-7.78,2.81-8.23,7.46-.77,7.9,4.26,13.08,11.75,14.39,1.32,.23,2.68,.22,4,.47,.89,.17,1.72,.6,2.86,1.02-.2,1.32-.15,2.51-.58,3.49-1.01,2.37-2.27,4.64-3.38,6.97-1.05,2.22-2.97,3.07-5.19,2.87-7.59-.68-14.75-2.63-20.37-8.19-6.87-6.8-9.41-15.04-7.34-24.43,2.56-11.57,12.06-19.09,23.92-19.6,5.74-.25,11.24,.2,16.47,2.92,6,3.11,8.85,8.3,10.02,14.57,.44,2.39,.28,4.92,.18,7.38-.12,2.93-1.77,4.97-4.31,6.34-3.4,1.83-7.16,2.08-10.87,2.39-2.93,.25-5.91,.66-8.84-.29Z"/><path class="f" d="M399.43,87.31c-.08,.97-.2,2.3-.32,3.64-.26,2.87-2.05,4.55-4.63,5.27-12.02,3.38-24.18,6.14-36.55,7.92-5.6,.81-7.9-.75-9.75-6.11-2.21-6.37-3.68-12.9-4.21-19.62-.12-1.52-.02-3.08,.23-4.59,.48-2.93,2.62-4.39,5.26-5.08,5.29-1.38,10.59-2.75,15.93-3.89,6.47-1.39,12.99-2.56,19.5-3.78,5.26-.99,7.68,.25,9.74,5.21,2.75,6.61,4.11,13.55,4.79,21.03Zm-31.57,3.13c4.23-3.46,8.21-6.72,12.53-10.26-5.34-1.5-10.22-2.88-15.64-4.4,1.1,5.19,2.06,9.73,3.11,14.66Z"/><path class="e" d="M305.25,79.21c6.39-1.49,12.77-2.97,18.93-4.4,2.07,2.66,11.18,41.57,10.62,44.42-3.48,1.62-17.18,4.63-19.35,4.26-1.69-3.3-10.46-40.63-10.2-44.27Z"/><path class="f" d="M128.13,125.53c.07-1.13-.03-2.07,.19-2.93,3.26-12.8,6.55-25.6,9.88-38.39,.27-1.02,.95-1.93,1.47-2.95,6.51,1.69,12.61,3.28,18.93,4.92-.03,1.16,.12,2.12-.1,2.99-3.39,13.17-6.82,26.32-10.26,39.47-.09,.36-.3,.69-.56,1.28-.66,.06-1.43,.33-2.09,.16-5.66-1.43-11.31-2.94-17.45-4.56Z"/><path class="f" d="M333.1,18.32c3.16-3.09,6.1-5.98,9.22-9.03,11.39,.05,22.9,.11,34.66,.17-.06,8.69-.11,17.1-.17,25.51-5.49,5.42-10.89,10.74-16.34,16.11l-7.51,.21c-2.92,2.85-5.85,5.71-9.04,8.82l-.25-9.08-10.69,.3c.04-11.28,.08-22.08,.12-33.01Zm11.09-5.37c-.08,9.1-.15,17.98-.22,27.1,2.8,.13,5.43,.26,8.18,.39l.16,5.91c2.28-2.21,4.27-4.13,6.13-5.94l7.46-.21c2.37-2.31,4.76-4.65,7.26-7.09,.02-6.58,.04-13.18,.07-20.02-9.82-.05-19.3-.1-29.04-.14Z"/><path class="e" d="M311.61,73.22c-6.38,.46-13.02-4.72-13.32-12.19-.28-6.85,4.45-13.17,12.43-13.41,8.64-.26,13.17,6.29,13.34,12.5,.21,7.66-6.27,13.21-12.45,13.1Z"/><path class="f" d="M141.7,67.34c-.16-7.16,5.32-12.82,12.53-12.94,7.04-.12,12.78,5.32,12.96,12.27,.18,7.06-5.42,12.97-12.45,13.15-7.11,.18-12.88-5.35-13.04-12.49Z"/><path class="d" d="M260.32,134.55l.09,3.1c2.94,.36,5.83,.72,8.81,1.08l.69-2.89c.91,.04,1.83,.09,2.9,.14,.19-.95,.38-1.85,.6-2.94,1.02,.08,1.94,.16,3.11,.25-.17,1.15-.3,2.06-.44,3.04l-2.93,.08c-.21,.89-.41,1.76-.65,2.78l2.87,.46,.08,2.98,2.54,.83,.08,2.77c.89,.27,1.76,.53,2.91,.87l-1.23,9.13-3.13-.28c.25-2.04,.48-3.91,.73-6.03-.81-.21-1.68-.44-2.85-.75-.36,2.14-.69,4.07-1.04,6.16l-2.87,.08c-.25,.84-.48,1.63-.81,2.79-1.91-.22-3.84-.44-5.94-.68,.07-1.08,.13-1.89,.2-3.03,2.04,.17,3.91,.32,6.07,.5l.78-2.96c-5.34-.7-10.39-1.37-15.63-2.06-.13,1.16-.21,1.99-.32,2.97l5.93,.98-.15,3.15c-2.16-.27-4.09-.5-6.14-.76l-.08-3.03-2.78-.82c.21-1.91,.43-3.85,.67-5.97-.95-.19-1.84-.37-2.89-.59-.36,2.19-.68,4.15-1.04,6.34-1-.16-1.9-.31-3.05-.5,.43-3.15,.83-6.13,1.24-9.21l2.9-.08c.29-.94,.56-1.82,.89-2.86l2.81,.26c.18-.91,.35-1.73,.54-2.7l2.93-.08c.15-.93,.27-1.74,.42-2.69l-2.94-.99c.13-.86,.26-1.67,.4-2.58l3.03-.08-.18,3.08,2.85,.73Zm-1.03,9.47l-.09-3.31c-.93-.07-1.74-.13-2.62-.19l-.53,2.9,3.24,.61Zm9.35,1.28l2.94-.08,.45-2.73-3.08-.19-.31,3Z"/><path class="d" d="M338.91,139.07l.21,7.43c-1.7,.31-3.18,.59-4.87,.9-.41-3.78-.82-7.5-1.27-11.59-1.38,.56-2.3,.94-3.48,1.42-.64-1.15-1.27-2.28-2.04-3.68,1.43-.84,2.72-1.6,4.12-2.42-.07-.84-.14-1.66-.24-2.75,1.48-.41,2.94-.82,4.55-1.27,.45,.29,.98,.63,1.5,.96,2.76-1.4,5.48-2.78,8.36-4.24,.71,1.28,1.31,2.34,2.08,3.74-3.36,1.83-6.6,3.59-9.98,5.43l.54,2.03c2.06-.79,3.91-1.53,5.77-2.21,3.44-1.26,4.72-.44,5.16,3.27,.06,.47,.09,.94,.15,1.48l3.19-.33c.11,.93,.22,1.67,.27,2.42,.03,.56-.03,1.12-.06,1.77-1.07,.35-2.05,.66-3.18,1.03-.26,.61-.55,1.3-.94,2.22-1.43,.34-2.99,.72-4.66,1.12-.21-.68-.36-1.19-.56-1.85l-2.95,.08c-.1-1.14-.18-2.14-.29-3.35,1.28-.45,2.42-.84,3.77-1.31,.04-.44,.1-.97,.21-2.07-1.85,.61-3.41,1.12-5.35,1.76Z"/><path class="d" d="M308.67,143.07c-.09,1.49-.17,2.69-.26,4.16-1.86-.09-3.45-.17-5.22-.25-.28,1.99-.56,3.92-.87,6.1-1.69-.19-3.17-.35-4.8-.53l-.17-6.17c-2.03-.27-4.16-.55-6.43-.84l.37-4.18c1.99,.12,3.94,.23,6.08,.36,.04-.79,.07-1.41,.1-2.19-1.55-.36-3.01-.69-4.81-1.1,.23-1.35,.45-2.61,.71-4.11l3.87,.48c.21-.86,.41-1.66,.66-2.71l5.15,.23c.13,1.14,.26,2.24,.42,3.61,1.35,.34,2.79,.7,4.6,1.15-.18,1.31-.37,2.63-.57,4.1-1.55-.21-2.75-.38-4.1-.56l.05,1.8c1.62,.21,3.23,.41,5.22,.67Z"/><path class="d" d="M361.27,136.14c-1.73,.42-3.43,.83-5.67,1.38,.72-7.88-4.07-13.3-7.17-19.73,1.7-1.01,3.28-1.95,4.81-2.86,5.44,6.61,8.56,14.73,8.04,21.21Z"/><path class="d" d="M313.01,146.34c-.23-1.75-.44-3.3-.7-5.29,5.69-.75,11.13-1.46,16.95-2.23,.27,1.83,.49,3.37,.76,5.22-5.73,.78-11.19,1.52-17.01,2.31Z"/><path class="d" d="M360.78,126.33c.5-1.81,.89-3.23,1.36-4.93,2.86,.59,5.51,1.13,8.57,1.76-.42,1.89-.79,3.56-1.24,5.6-3.03-.85-5.64-1.58-8.7-2.43Z"/><path class="e" d="M50.6,93.96l-.63,.36-.72-.72,1.28-.41,.07,.77Z"/><path class="c" d="M198.29,89.27c-.72-6.07-1.43-12.12-2.15-18.23,4.49-1.5,8.53-1.97,12.47,.57,5.72,3.68,6.27,13.74-.35,17.12-2.59,1.32-6.22,1.64-9.97,.53Z"/><path class="c" d="M273.38,91.22c-.65,5.06-1.26,9.8-1.86,14.52-7.05,1.95-11.26-1.36-12.62-5-1.68-4.49,.57-10.26,4.79-12.34,3.55-1.75,7.41-.61,9.69,2.82Z"/><path class="c" d="M367.86,90.44c-1.05-4.93-2.01-9.47-3.11-14.66,5.42,1.53,10.3,2.9,15.64,4.4-4.33,3.54-8.3,6.79-12.53,10.26Z"/><path class="c" d="M344.2,12.95c9.74,.05,19.22,.1,29.04,.14-.02,6.84-.04,13.44-.07,20.02-2.5,2.44-4.9,4.78-7.26,7.09l-7.46,.21c-1.87,1.81-3.85,3.73-6.13,5.94l-.16-5.91c-2.75-.13-5.38-.26-8.18-.39,.08-9.12,.15-17.99,.22-27.1Zm13.54,17.28l-.3-10.7-3.27,.09c-.07,3.62-.14,7.1-.22,10.72l3.79-.1Zm10,.07l-.3-10.82-3.38,.09,.29,10.61,3.38,.11Z"/><path class="c" d="M259.28,144.02l-3.24-.61,.53-2.9c.88,.06,1.69,.13,2.62,.19l.09,3.31Z"/><path class="c" d="M268.64,145.31l.31-3,3.08,.19-.45,2.73-2.94,.08Z"/><path class="e" d="M357.74,30.23l-3.79,.1c.07-3.61,.14-7.09,.22-10.72l3.27-.09,.3,10.7Z"/><path class="e" d="M367.74,30.3l-3.38-.11-.29-10.61,3.38-.09,.3,10.82Z"/></g><g id="b"><path class="g" d="M268.78,171.5c-2.57-.53-5.13-1.12-7.71-1.55-2.36-.4-4.74-.62-7.12-.92-2.96-.37-5.59-1.34-7.13-4.01-.74-.16-1.29-.34-1.86-.39-5.92-.44-9.43-5.64-8.48-11.63,.48-3.03,1-6.05,1.38-9.09,.3-2.38,1.6-4.02,3.48-5.34,1.25-.88,2.45-1.82,3.7-2.75,.19-.95,.38-1.88,.58-2.9-.75-1.93-1.9-3.55-3.66-4.92-3.72-2.92-6.87-6.42-9.45-10.4-.56-.87-.93-1.87-1.25-2.51-6.14,2.22-12.29,4.45-18.78,6.8,.14,.9,.36,2.28,.57,3.67,.84,5.71-.26,10.87-5.33,14.18-2.07,1.35-4.79,1.98-7.3,2.33-5.98,.83-12,1.42-18.02,1.86-4.4,.32-8.09-1.34-10.67-5.03-.64-.92-1.32-1.96-1.5-3.03-.86-5.19-1.49-10.42-2.34-15.61-.33-2.01-.15-4.23-1.7-6.05l-2.35,.41c-.42,1.33-.89,2.59-1.21,3.88-1.23,5.02-2.46,10.04-3.58,15.09-1.38,6.26-4.94,10.03-11.22,10.57-3.05,.26-6.24-.65-9.33-1.25-3.2-.62-6.33-1.56-9.51-2.26-3.09-.68-5.8-2.12-8.14-4.14-2.82-2.43-3.82-5.78-3.33-9.35,.47-3.39,1.42-6.72,2.16-10.08,.08-.27,.16-.54,.36-1.23l-.89,.76c-6.11,4.82-12.84,3.31-19.77,1.88-.23,.83-.35,1.77-.73,2.6-.71,1.54-1.23,3.37-2.42,4.45-4.19,3.8-8.36,7.73-13.03,10.86-4.95,3.32-11.26,4.52-16.43-.21-1.75-1.6-3.79-2.89-5.87-4.45-.01,5.17-1.74,9.25-5.85,12.13-.77,.54-1.65,1-2.55,1.25-6.37,1.8-12.82,3.34-19.12,5.34-6.5,2.06-13.04-3.46-14.37-8.34-3.99-14.7-8.16-29.35-12.24-44.02-2.18-7.84-4.37-15.69-6.51-23.54-1.36-5.01,2.15-11.33,7.16-12.77,6.73-1.94,13.47-3.83,20.24-5.61,3.46-.91,6.63,.09,9.51,2.11,.79,.55,1.57,1.11,2.45,1.73,2.09-2.43,4.17-4.91,6.33-7.32,3.93-4.39,8.79-6.08,14.52-4.53,1.8,.48,3.56,1.39,5.13,2.41,4.16,2.72,8.2,5.61,12.29,8.43,16.6-17.28,44.6-15.51,57.39-1.47,7.2-10.08,20.5-12.49,30.36-7.01,6.09-.85,11.6-1.52,17.06-2.43,2.52-.42,5.04-1.1,7.42-2.03,9.01-3.52,18.1-3.4,27.35-1.12,6.68,1.65,12.58,4.71,17.45,9.51,4.18,4.12,7.62,8.83,9.69,14.62,6.56-3.96,13.67-5.19,21.02-4.68,3.39,.23,6.73,1.36,10.08,2.15,4.17,.99,8.31,2.05,12.63,3.12-1.36-9.97,.9-18.35,9.19-24.26,8.24-5.88,16.92-5.62,26.07-1.09,.05-4.93,.04-9.67,.18-14.4,.1-3.34,.17-6.71,.71-10,.27-1.67,1.27-3.44,2.42-4.72,2.7-2.99,5.68-5.72,8.58-8.54,2.27-2.21,5.18-2.95,8.17-2.96,10-.05,20.01,.06,30.02,.13,1.24,0,2.48,.19,3.72,.32,6.05,.6,8.6,4.93,8.75,9.98,.24,7.68,.08,15.37-.08,23.05-.09,3.95-1.52,7.3-4.71,10.04-3.76,3.23-7.1,6.95-10.96,10.8,4.8-.86,9.11-1.67,13.44-2.41,7.62-1.3,14.99,1.46,18.4,8.96,2.91,6.42,4.43,13.23,5.69,20.11,.19,.94,.39,1.87,.58,2.81l.21,7.49c-.3,.73-.72,1.44-.87,2.2-1.25,6.18-4.96,9.94-11.06,11.44-6.14,1.51-12.27,3.09-18.41,4.63-2.46,.61-4.93,1.17-8.06,1.92,3.06,1.91,5.73,3.13,7.82,4.99,2.31,2.05,3.03,5.15,2.62,8.14-.4,2.9-1.12,5.86-2.3,8.54-1.24,2.8-3.69,4.61-6.92,5.08-1.72,4.62-4.91,7.52-9.76,8.33-.35,.46-.59,.89-.94,1.2-3.18,2.85-6.04,6.18-10.54,7.04-3.37,.64-6.8,1.04-10.09,1.95-4.68,1.3-9.05,1.29-13.11-1.76-4.97,.62-9.9,1.24-15.08,1.89-2.17,4.47-6.2,6.54-11.1,6.43-4.56-.1-9.08-.97-12.13-5.2-2.34,6.08-5.17,7.59-12.44,7.2-2.42,.93-4.44,1.71-6.45,2.49l-1.15,.03ZM50.52,96.87c6.81-8.31,13.63-16.62,20.43-24.95,1.79-2.19,1.63-3.36-.61-4.99-3.58-2.59-7.16-5.17-10.79-7.69-.9-.63-1.98-1-2.91-1.46-.81,.57-1.38,.92-1.88,1.35-.51,.43-1.01,.9-1.4,1.44-5.22,7.11-10.43,14.24-15.65,21.35-.4,.54-.88,1.02-1.53,1.76-.9-3.22-1.66-6-2.45-8.76-.79-2.74-1.6-5.48-2.36-8.07-2.67-.51-18.23,3.74-20.52,5.46-.02,3.01,17.69,65.75,19.34,67.95,6.58-1.56,13.26-3.33,20.17-5.71-2.65-9.6-5.2-18.79-7.72-27.93l2.77-3.24c1.6,1.32,3.1,2.49,4.52,3.75,7.55,6.68,15.06,13.39,22.62,20.06,.82,.72,1.85,1.2,2.78,1.79,.98-.67,1.73-1.1,2.39-1.64,3.16-2.65,6.3-5.33,9.42-8.02,2.3-1.98,2.46-2.92,.63-5.3-6.29-8.18-13.52-15.44-21.94-21.43-1.43-1.02-3.21-1.55-4.74-2.27-3.73,2.61-7.11,4.97-10.49,7.33l-.07-.77Zm151.51,34.47c.26-1.16,.67-2.06,.61-2.92-.18-2.29-.59-4.56-.86-6.85-.4-3.39-.76-6.78-1.16-10.38,.94,.02,1.49,0,2.04,.04,5.15,.33,10.1-.58,14.98-2.2,19.72-6.53,23.07-27.2,14.23-41.54-7.5-12.18-22.88-16.11-35.51-12.5-3.75,1.07-7.2,3.1-11.26,3.29-3.35,.15-6.69,.68-10.01,1.15-1.15,.16-2.26,.63-3.33,.94-.03,1.05-.12,1.63-.05,2.18,.44,3.9,.89,7.81,1.36,11.71,1.2,9.8,2.45,19.59,3.63,29.39,1.06,8.85,2.03,17.71,3.1,26.56,.14,1.14,.68,2.23,1.1,3.56,7.19-.83,13.94-1.61,21.15-2.44Zm96.1-47.71c-.82-.6-1.43-1.39-2.17-1.53-6.15-1.22-12.12-3.52-19.01-3.56-3.13-1.62-6.88-2.91-10.95-3.5-18.33-2.68-30.24,15.86-27.08,29.78,3.09,13.61,17.22,22.89,32.03,20.23,1.68-.3,3.33-.75,4.93-1.12,3.25,3.27,6.71,5.9,11.48,6.88,3.66-3.73,6.19-8.21,9.17-12.47-.53-.69-.84-1.32-1.34-1.7-2.34-1.74-3.07-4.24-2.85-6.88,.3-3.61,.79-7.25,1.61-10.78,1.16-5.03,2.69-9.98,4.18-15.36Zm-190.47,6.84c2.93,.95,5.91,.54,8.84,.29,3.72-.32,7.48-.56,10.87-2.39,2.54-1.37,4.19-3.41,4.31-6.34,.1-2.46,.27-4.99-.18-7.38-1.16-6.27-4.02-11.46-10.02-14.57-5.23-2.72-10.73-3.16-16.47-2.92-11.86,.52-21.37,8.03-23.92,19.6-2.07,9.39,.47,17.64,7.34,24.43,5.62,5.56,12.78,7.52,20.37,8.19,2.22,.2,4.14-.65,5.19-2.87,1.11-2.33,2.36-4.6,3.38-6.97,.42-.99,.37-2.17,.58-3.49-1.14-.42-1.97-.85-2.86-1.02-1.31-.25-2.68-.24-4-.47-7.49-1.3-12.52-6.49-11.75-14.39,.45-4.65,4.13-7.94,8.23-7.46,2.64,.3,3.86,1.42,4.49,4.41-2.22,.56-4.47,1.12-6.61,1.66-.39,2.58,.62,7.92,2.22,11.68Zm291.76,.52c-.68-7.48-2.04-14.43-4.79-21.03-2.06-4.96-4.48-6.2-9.74-5.21-6.51,1.23-13.03,2.4-19.5,3.78-5.34,1.14-10.64,2.51-15.93,3.89-2.65,.69-4.78,2.15-5.26,5.08-.25,1.5-.35,3.07-.23,4.59,.53,6.72,2,13.25,4.21,19.62,1.86,5.36,4.15,6.92,9.75,6.11,12.36-1.79,24.53-4.55,36.55-7.92,2.57-.72,4.36-2.4,4.63-5.27,.12-1.33,.23-2.67,.32-3.64Zm-94.18-8.11c-.26,3.64,8.51,40.97,10.2,44.27,2.18,.38,15.87-2.64,19.35-4.26,.56-2.85-8.55-41.75-10.62-44.42-6.17,1.43-12.55,2.92-18.93,4.4Zm-177.12,46.32c6.15,1.62,11.79,3.13,17.45,4.56,.66,.17,1.44-.1,2.09-.16,.26-.59,.46-.93,.56-1.28,3.43-13.15,6.87-26.31,10.26-39.47,.22-.87,.07-1.83,.1-2.99-6.32-1.64-12.42-3.23-18.93-4.92-.52,1.02-1.2,1.93-1.47,2.95-3.34,12.78-6.62,25.58-9.88,38.39-.22,.86-.13,1.8-.19,2.93ZM333.1,22c-.04,10.93-.08,21.73-.12,33.01l10.69-.3,.25,9.08c3.19-3.11,6.12-5.97,9.04-8.82l7.51-.21c5.45-5.38,10.85-10.7,16.34-16.11,.06-8.41,.11-16.82,.17-25.51-11.76-.06-23.27-.11-34.66-.17-3.12,3.05-6.06,5.94-9.22,9.03Zm-21.5,54.89c6.18,.11,12.66-5.44,12.45-13.1-.17-6.21-4.7-12.76-13.34-12.5-7.98,.24-12.7,6.56-12.43,13.41,.3,7.47,6.94,12.65,13.32,12.19Zm-169.9-5.88c.16,7.14,5.93,12.66,13.04,12.49,7.03-.17,12.63-6.09,12.45-13.15-.18-6.95-5.92-12.39-12.96-12.27-7.22,.12-12.69,5.77-12.53,12.94Zm118.62,67.22l-2.85-.73,.18-3.08-3.03,.08c-.14,.91-.27,1.73-.4,2.58l2.94,.99c-.15,.95-.28,1.76-.42,2.69l-2.93,.08c-.19,.97-.36,1.79-.54,2.7l-2.81-.26c-.33,1.05-.6,1.92-.89,2.86l-2.9,.08c-.41,3.07-.82,6.05-1.24,9.21,1.14,.19,2.05,.33,3.05,.5,.36-2.2,.68-4.15,1.04-6.34,1.05,.21,1.94,.39,2.89,.59-.24,2.12-.46,4.06-.67,5.97l2.78,.82,.08,3.03c2.05,.25,3.99,.49,6.14,.76l.15-3.15-5.93-.98c.11-.98,.19-1.8,.32-2.97,5.24,.69,10.29,1.36,15.63,2.06l-.78,2.96c-2.16-.18-4.03-.33-6.07-.5-.08,1.14-.13,1.95-.2,3.03,2.1,.24,4.03,.46,5.94,.68,.34-1.16,.57-1.94,.81-2.79l2.87-.08c.35-2.09,.68-4.03,1.04-6.16,1.17,.31,2.05,.54,2.85,.75-.26,2.12-.49,3.99-.73,6.03l3.13,.28,1.23-9.13c-1.15-.34-2.02-.6-2.91-.87l-.08-2.77-2.54-.83-.08-2.98-2.87-.46c.24-1.02,.44-1.88,.65-2.78l2.93-.08c.14-.98,.28-1.89,.44-3.04-1.17-.09-2.09-.17-3.11-.25-.22,1.09-.41,1.99-.6,2.94-1.06-.05-1.98-.09-2.9-.14l-.69,2.89c-2.98-.37-5.87-.72-8.81-1.08l-.09-3.1Zm78.6,4.52c1.95-.64,3.51-1.15,5.35-1.76-.11,1.09-.16,1.62-.21,2.07-1.34,.47-2.49,.87-3.77,1.31,.1,1.21,.19,2.21,.29,3.35l2.95-.08c.2,.66,.36,1.17,.56,1.85,1.67-.4,3.23-.78,4.66-1.12,.39-.93,.68-1.62,.94-2.22,1.13-.37,2.11-.69,3.18-1.03,.03-.66,.09-1.22,.06-1.77-.04-.75-.16-1.49-.27-2.42l-3.19,.33c-.05-.54-.09-1.01-.15-1.48-.45-3.71-1.73-4.53-5.16-3.27-1.87,.68-3.71,1.42-5.77,2.21l-.54-2.03c3.38-1.84,6.62-3.6,9.98-5.43-.78-1.4-1.37-2.46-2.08-3.74-2.88,1.46-5.6,2.84-8.36,4.24-.53-.34-1.05-.68-1.5-.96-1.61,.45-3.07,.86-4.55,1.27,.09,1.09,.17,1.91,.24,2.75-1.4,.82-2.69,1.58-4.12,2.42,.78,1.4,1.41,2.53,2.04,3.68,1.18-.48,2.1-.86,3.48-1.42,.45,4.08,.86,7.81,1.27,11.59,1.7-.31,3.18-.59,4.87-.9l-.21-7.43Zm-30.25,4c-2-.25-3.6-.46-5.22-.67l-.05-1.8c1.35,.18,2.55,.35,4.1,.56,.2-1.47,.39-2.79,.57-4.1-1.8-.45-3.25-.81-4.6-1.15-.16-1.37-.29-2.47-.42-3.61l-5.15-.23c-.26,1.05-.45,1.85-.66,2.71l-3.87-.48c-.26,1.5-.47,2.76-.71,4.11,1.79,.41,3.25,.75,4.81,1.1-.04,.78-.07,1.4-.1,2.19-2.14-.13-4.09-.24-6.08-.36l-.37,4.18c2.27,.3,4.4,.58,6.43,.84l.17,6.17c1.63,.18,3.12,.34,4.8,.53,.31-2.18,.59-4.11,.87-6.1,1.77,.09,3.37,.16,5.22,.25,.09-1.47,.16-2.67,.26-4.16Zm52.61-6.93c.52-6.48-2.6-14.6-8.04-21.21-1.53,.91-3.1,1.85-4.81,2.86,3.11,6.43,7.89,11.85,7.17,19.73,2.24-.55,3.94-.96,5.67-1.38Zm-48.26,10.21c5.82-.79,11.29-1.53,17.01-2.31-.27-1.84-.49-3.39-.76-5.22-5.82,.77-11.27,1.48-16.95,2.23,.26,1.99,.47,3.54,.7,5.29Zm47.77-20.02c3.06,.86,5.66,1.58,8.7,2.43,.45-2.04,.82-3.71,1.24-5.6-3.06-.63-5.71-1.17-8.57-1.76-.47,1.7-.86,3.12-1.36,4.93Z"/><path class="c" d="M268.78,167.82c-2.57-.53-5.13-1.12-7.71-1.55-2.36-.4-4.74-.62-7.12-.92-2.96-.37-5.59-1.34-7.13-4.01-.74-.16-1.29-.34-1.86-.39-5.92-.44-9.43-5.64-8.48-11.63,.48-3.03,1-6.05,1.38-9.09,.3-2.38,1.6-4.02,3.48-5.34,1.25-.88,2.45-1.82,3.7-2.75,.19-.95,.38-1.88,.58-2.9-.75-1.93-1.9-3.55-3.66-4.92-3.72-2.92-6.87-6.42-9.45-10.4-.56-.87-.93-1.87-1.25-2.51-6.14,2.22-12.29,4.45-18.78,6.8,.14,.9,.36,2.28,.57,3.67,.84,5.71-.26,10.87-5.33,14.18-2.07,1.35-4.79,1.98-7.3,2.33-5.98,.83-12,1.42-18.02,1.86-4.4,.32-8.09-1.34-10.67-5.03-.64-.92-1.32-1.96-1.5-3.03-.86-5.19-1.49-10.42-2.34-15.61-.33-2.01-.15-4.23-1.7-6.05l-2.35,.41c-.42,1.33-.89,2.59-1.21,3.88-1.23,5.02-2.46,10.04-3.58,15.09-1.38,6.26-4.94,10.03-11.22,10.57-3.05,.26-6.24-.65-9.33-1.25-3.2-.62-6.33-1.56-9.51-2.26-3.09-.68-5.8-2.12-8.14-4.14-2.82-2.43-3.82-5.78-3.33-9.35,.47-3.39,1.42-6.72,2.16-10.08,.08-.27,.16-.54,.36-1.23l-.89,.76c-6.11,4.82-12.84,3.31-19.77,1.88-.23,.83-.35,1.77-.73,2.6-.71,1.54-1.23,3.37-2.42,4.45-4.19,3.8-8.36,7.73-13.03,10.86-4.95,3.32-11.26,4.52-16.43-.21-1.75-1.6-3.79-2.89-5.87-4.45-.01,5.17-1.74,9.25-5.85,12.13-.77,.54-1.65,1-2.55,1.25-6.37,1.8-12.82,3.34-19.12,5.34-6.5,2.06-13.04-3.46-14.37-8.34-3.99-14.7-8.16-29.35-12.24-44.02-2.18-7.84-4.37-15.69-6.51-23.54-1.36-5.01,2.15-11.33,7.16-12.77,6.73-1.94,13.47-3.83,20.24-5.61,3.46-.91,6.63,.09,9.51,2.11,.79,.55,1.57,1.11,2.45,1.73,2.09-2.43,4.17-4.91,6.33-7.32,3.93-4.39,8.79-6.08,14.52-4.53,1.8,.48,3.56,1.39,5.13,2.41,4.16,2.72,8.2,5.61,12.29,8.43,16.6-17.28,44.6-15.51,57.39-1.47,7.2-10.08,20.5-12.49,30.36-7.01,6.09-.85,11.6-1.52,17.06-2.43,2.52-.42,5.04-1.1,7.42-2.03,9.01-3.52,18.1-3.4,27.35-1.12,6.68,1.65,12.58,4.71,17.45,9.51,4.18,4.12,7.62,8.83,9.69,14.62,6.56-3.96,13.67-5.19,21.02-4.68,3.39,.23,6.73,1.36,10.08,2.15,4.17,.99,8.31,2.05,12.63,3.12-1.36-9.97,.9-18.35,9.19-24.26,8.24-5.88,16.92-5.62,26.07-1.09,.05-4.93,.04-9.67,.18-14.4,.1-3.34,.17-6.71,.71-10,.27-1.67,1.27-3.44,2.42-4.72,2.7-2.99,5.68-5.72,8.58-8.54,2.27-2.21,5.18-2.95,8.17-2.96,10-.05,20.01,.06,30.02,.13,1.24,0,2.48,.19,3.72,.32,6.05,.6,8.6,4.93,8.75,9.98,.24,7.68,.08,15.37-.08,23.05-.09,3.95-1.52,7.3-4.71,10.04-3.76,3.23-7.1,6.95-10.96,10.8,4.8-.86,9.11-1.67,13.44-2.41,7.62-1.3,14.99,1.46,18.4,8.96,2.91,6.42,4.43,13.23,5.69,20.11,.19,.94,.39,1.87,.58,2.81l.21,7.49c-.3,.73-.72,1.44-.87,2.2-1.25,6.18-4.96,9.94-11.06,11.44-6.14,1.51-12.27,3.09-18.41,4.63-2.46,.61-4.93,1.17-8.06,1.92,3.06,1.91,5.73,3.13,7.82,4.99,2.31,2.05,3.03,5.15,2.62,8.14-.4,2.9-1.12,5.86-2.3,8.54-1.24,2.8-3.69,4.61-6.92,5.08-1.72,4.62-4.91,7.52-9.76,8.33-.35,.46-.59,.89-.94,1.2-3.18,2.85-6.04,6.18-10.54,7.04-3.37,.64-6.8,1.04-10.09,1.95-4.68,1.3-9.05,1.29-13.11-1.76-4.97,.62-9.9,1.24-15.08,1.89-2.17,4.47-6.2,6.54-11.1,6.43-4.56-.1-9.08-.97-12.13-5.2-2.34,6.08-5.17,7.59-12.44,7.2-2.42,.93-4.44,1.71-6.45,2.49l-1.15,.03ZM50.52,93.19c6.81-8.31,13.63-16.62,20.43-24.95,1.79-2.19,1.63-3.36-.61-4.99-3.58-2.59-7.16-5.17-10.79-7.69-.9-.63-1.98-1-2.91-1.46-.81,.57-1.38,.92-1.88,1.35-.51,.43-1.01,.9-1.4,1.44-5.22,7.11-10.43,14.24-15.65,21.35-.4,.54-.88,1.02-1.53,1.76-.9-3.22-1.66-6-2.45-8.76-.79-2.74-1.6-5.48-2.36-8.07-2.67-.51-18.23,3.74-20.52,5.46-.02,3.01,17.69,65.75,19.34,67.95,6.58-1.56,13.26-3.33,20.17-5.71-2.65-9.6-5.2-18.79-7.72-27.93l2.77-3.24c1.6,1.32,3.1,2.49,4.52,3.75,7.55,6.68,15.06,13.39,22.62,20.06,.82,.72,1.85,1.2,2.78,1.79,.98-.67,1.73-1.1,2.39-1.64,3.16-2.65,6.3-5.33,9.42-8.02,2.3-1.98,2.46-2.92,.63-5.3-6.29-8.18-13.52-15.44-21.94-21.43-1.43-1.02-3.21-1.55-4.74-2.27-3.73,2.61-7.11,4.97-10.49,7.33l-.07-.77Zm151.51,34.47c.26-1.16,.67-2.06,.61-2.92-.18-2.29-.59-4.56-.86-6.85-.4-3.39-.76-6.78-1.16-10.38,.94,.02,1.49,0,2.04,.04,5.15,.33,10.1-.58,14.98-2.2,19.72-6.53,23.07-27.2,14.23-41.54-7.5-12.18-22.88-16.11-35.51-12.5-3.75,1.07-7.2,3.1-11.26,3.29-3.35,.15-6.69,.68-10.01,1.15-1.15,.16-2.26,.63-3.33,.94-.03,1.05-.12,1.63-.05,2.18,.44,3.9,.89,7.81,1.36,11.71,1.2,9.8,2.45,19.59,3.63,29.39,1.06,8.85,2.03,17.71,3.1,26.56,.14,1.14,.68,2.23,1.1,3.56,7.19-.83,13.94-1.61,21.15-2.44Zm96.1-47.71c-.82-.6-1.43-1.39-2.17-1.53-6.15-1.22-12.12-3.52-19.01-3.56-3.13-1.62-6.88-2.91-10.95-3.5-18.33-2.68-30.24,15.86-27.08,29.78,3.09,13.61,17.22,22.89,32.03,20.23,1.68-.3,3.33-.75,4.93-1.12,3.25,3.27,6.71,5.9,11.48,6.88,3.66-3.73,6.19-8.21,9.17-12.47-.53-.69-.84-1.32-1.34-1.7-2.34-1.74-3.07-4.24-2.85-6.88,.3-3.61,.79-7.25,1.61-10.78,1.16-5.03,2.69-9.98,4.18-15.36Zm-190.47,6.84c2.93,.95,5.91,.54,8.84,.29,3.72-.32,7.48-.56,10.87-2.39,2.54-1.37,4.19-3.41,4.31-6.34,.1-2.46,.27-4.99-.18-7.38-1.16-6.27-4.02-11.46-10.02-14.57-5.23-2.72-10.73-3.16-16.47-2.92-11.86,.52-21.37,8.03-23.92,19.6-2.07,9.39,.47,17.64,7.34,24.43,5.62,5.56,12.78,7.52,20.37,8.19,2.22,.2,4.14-.65,5.19-2.87,1.11-2.33,2.36-4.6,3.38-6.97,.42-.99,.37-2.17,.58-3.49-1.14-.42-1.97-.85-2.86-1.02-1.31-.25-2.68-.24-4-.47-7.49-1.3-12.52-6.49-11.75-14.39,.45-4.65,4.13-7.94,8.23-7.46,2.64,.3,3.86,1.42,4.49,4.41-2.22,.56-4.47,1.12-6.61,1.66-.39,2.58,.62,7.92,2.22,11.68Zm291.76,.52c-.68-7.48-2.04-14.43-4.79-21.03-2.06-4.96-4.48-6.2-9.74-5.21-6.51,1.23-13.03,2.4-19.5,3.78-5.34,1.14-10.64,2.51-15.93,3.89-2.65,.69-4.78,2.15-5.26,5.08-.25,1.5-.35,3.07-.23,4.59,.53,6.72,2,13.25,4.21,19.62,1.86,5.36,4.15,6.92,9.75,6.11,12.36-1.79,24.53-4.55,36.55-7.92,2.57-.72,4.36-2.4,4.63-5.27,.12-1.33,.23-2.67,.32-3.64Zm-94.18-8.11c-.26,3.64,8.51,40.97,10.2,44.27,2.18,.38,15.87-2.64,19.35-4.26,.56-2.85-8.55-41.75-10.62-44.42-6.17,1.43-12.55,2.92-18.93,4.4Zm-177.12,46.32c6.15,1.62,11.79,3.13,17.45,4.56,.66,.17,1.44-.1,2.09-.16,.26-.59,.46-.93,.56-1.28,3.43-13.15,6.87-26.31,10.26-39.47,.22-.87,.07-1.83,.1-2.99-6.32-1.64-12.42-3.23-18.93-4.92-.52,1.02-1.2,1.93-1.47,2.95-3.34,12.78-6.62,25.58-9.88,38.39-.22,.86-.13,1.8-.19,2.93ZM333.1,18.32c-.04,10.93-.08,21.73-.12,33.01l10.69-.3,.25,9.08c3.19-3.11,6.12-5.97,9.04-8.82l7.51-.21c5.45-5.38,10.85-10.7,16.34-16.11,.06-8.41,.11-16.82,.17-25.51-11.76-.06-23.27-.11-34.66-.17-3.12,3.05-6.06,5.94-9.22,9.03Zm-21.5,54.89c6.18,.11,12.66-5.44,12.45-13.1-.17-6.21-4.7-12.76-13.34-12.5-7.98,.24-12.7,6.56-12.43,13.41,.3,7.47,6.94,12.65,13.32,12.19Zm-169.9-5.88c.16,7.14,5.93,12.66,13.04,12.49,7.03-.17,12.63-6.09,12.45-13.15-.18-6.95-5.92-12.39-12.96-12.27-7.22,.12-12.69,5.77-12.53,12.94Zm118.62,67.22l-2.85-.73,.18-3.08-3.03,.08c-.14,.91-.27,1.73-.4,2.58l2.94,.99c-.15,.95-.28,1.76-.42,2.69l-2.93,.08c-.19,.97-.36,1.79-.54,2.7l-2.81-.26c-.33,1.05-.6,1.92-.89,2.86l-2.9,.08c-.41,3.07-.82,6.05-1.24,9.21,1.14,.19,2.05,.33,3.05,.5,.36-2.2,.68-4.15,1.04-6.34,1.05,.21,1.94,.39,2.89,.59-.24,2.12-.46,4.06-.67,5.97l2.78,.82,.08,3.03c2.05,.25,3.99,.49,6.14,.76l.15-3.15-5.93-.98c.11-.98,.19-1.8,.32-2.97,5.24,.69,10.29,1.36,15.63,2.06l-.78,2.96c-2.16-.18-4.03-.33-6.07-.5-.08,1.14-.13,1.95-.2,3.03,2.1,.24,4.03,.46,5.94,.68,.34-1.16,.57-1.94,.81-2.79l2.87-.08c.35-2.09,.68-4.03,1.04-6.16,1.17,.31,2.05,.54,2.85,.75-.26,2.12-.49,3.99-.73,6.03l3.13,.28,1.23-9.13c-1.15-.34-2.02-.6-2.91-.87l-.08-2.77-2.54-.83-.08-2.98-2.87-.46c.24-1.02,.44-1.88,.65-2.78l2.93-.08c.14-.98,.28-1.89,.44-3.04-1.17-.09-2.09-.17-3.11-.25-.22,1.09-.41,1.99-.6,2.94-1.06-.05-1.98-.09-2.9-.14l-.69,2.89c-2.98-.37-5.87-.72-8.81-1.08l-.09-3.1Zm78.6,4.52c1.95-.64,3.51-1.15,5.35-1.76-.11,1.09-.16,1.62-.21,2.07-1.34,.47-2.49,.87-3.77,1.31,.1,1.21,.19,2.21,.29,3.35l2.95-.08c.2,.66,.36,1.17,.56,1.85,1.67-.4,3.23-.78,4.66-1.12,.39-.93,.68-1.62,.94-2.22,1.13-.37,2.11-.69,3.18-1.03,.03-.66,.09-1.22,.06-1.77-.04-.75-.16-1.49-.27-2.42l-3.19,.33c-.05-.54-.09-1.01-.15-1.48-.45-3.71-1.73-4.53-5.16-3.27-1.87,.68-3.71,1.42-5.77,2.21l-.54-2.03c3.38-1.84,6.62-3.6,9.98-5.43-.78-1.4-1.37-2.46-2.08-3.74-2.88,1.46-5.6,2.84-8.36,4.24-.53-.34-1.05-.68-1.5-.96-1.61,.45-3.07,.86-4.55,1.27,.09,1.09,.17,1.91,.24,2.75-1.4,.82-2.69,1.58-4.12,2.42,.78,1.4,1.41,2.53,2.04,3.68,1.18-.48,2.1-.86,3.48-1.42,.45,4.08,.86,7.81,1.27,11.59,1.7-.31,3.18-.59,4.87-.9l-.21-7.43Zm-30.25,4c-2-.25-3.6-.46-5.22-.67l-.05-1.8c1.35,.18,2.55,.35,4.1,.56,.2-1.47,.39-2.79,.57-4.1-1.8-.45-3.25-.81-4.6-1.15-.16-1.37-.29-2.47-.42-3.61l-5.15-.23c-.26,1.05-.45,1.85-.66,2.71l-3.87-.48c-.26,1.5-.47,2.76-.71,4.11,1.79,.41,3.25,.75,4.81,1.1-.04,.78-.07,1.4-.1,2.19-2.14-.13-4.09-.24-6.08-.36l-.37,4.18c2.27,.3,4.4,.58,6.43,.84l.17,6.17c1.63,.18,3.12,.34,4.8,.53,.31-2.18,.59-4.11,.87-6.1,1.77,.09,3.37,.16,5.22,.25,.09-1.47,.16-2.67,.26-4.16Zm52.61-6.93c.52-6.48-2.6-14.6-8.04-21.21-1.53,.91-3.1,1.85-4.81,2.86,3.11,6.43,7.89,11.85,7.17,19.73,2.24-.55,3.94-.96,5.67-1.38Zm-48.26,10.21c5.82-.79,11.29-1.53,17.01-2.31-.27-1.84-.49-3.39-.76-5.22-5.82,.77-11.27,1.48-16.95,2.23,.26,1.99,.47,3.54,.7,5.29Zm47.77-20.02c3.06,.86,5.66,1.58,8.7,2.43,.45-2.04,.82-3.71,1.24-5.6-3.06-.63-5.71-1.17-8.57-1.76-.47,1.7-.86,3.12-1.36,4.93Z"/><path class="e" d="M408.55,83.8c-.19-.94-.39-1.87-.58-2.81,.17,0,.34-.03,.5-.07l.08,2.88Z"/><path class="e" d="M202.03,127.66c-7.2,.83-13.95,1.61-21.15,2.44-.42-1.33-.96-2.42-1.1-3.56-1.07-8.85-2.04-17.71-3.1-26.56-1.18-9.8-2.43-19.59-3.63-29.39-.48-3.9-.93-7.8-1.36-11.71-.06-.56,.02-1.13,.05-2.18,1.07-.31,2.18-.78,3.33-.94,3.33-.47,6.66-.99,10.01-1.15,4.06-.19,7.5-2.22,11.26-3.29,12.64-3.61,28.01,.32,35.51,12.5,8.83,14.34,5.49,35.01-14.23,41.54-4.87,1.61-9.83,2.53-14.98,2.2-.55-.04-1.11-.02-2.04-.04,.4,3.6,.76,6.99,1.16,10.38,.27,2.28,.69,4.56,.86,6.85,.07,.86-.35,1.77-.61,2.92Zm-3.74-38.38c3.75,1.11,7.38,.8,9.97-.53,6.62-3.38,6.07-13.44,.35-17.12-3.94-2.54-7.99-2.07-12.47-.57,.72,6.11,1.43,12.15,2.15,18.23Z"/><path class="f" d="M50.6,93.96c3.38-2.36,6.75-4.72,10.49-7.33,1.53,.72,3.31,1.25,4.74,2.27,8.43,6,15.65,13.25,21.94,21.43,1.83,2.38,1.66,3.32-.63,5.3-3.12,2.7-6.27,5.37-9.42,8.02-.65,.55-1.41,.98-2.39,1.64-.93-.59-1.96-1.06-2.78-1.79-7.56-6.66-15.07-13.38-22.62-20.06-1.42-1.26-2.92-2.43-4.52-3.75l-2.77,3.24c2.53,9.14,5.07,18.34,7.72,27.93-6.91,2.38-13.59,4.15-20.17,5.71-1.65-2.2-19.37-64.94-19.34-67.95,2.29-1.72,17.85-5.97,20.52-5.46,.76,2.59,1.57,5.32,2.36,8.07,.79,2.76,1.55,5.53,2.45,8.76,.65-.74,1.13-1.22,1.53-1.76,5.22-7.12,10.42-14.24,15.65-21.35,.39-.53,.89-1,1.4-1.44,.5-.43,1.08-.78,1.88-1.35,.93,.46,2.01,.83,2.91,1.46,3.63,2.52,7.21,5.1,10.79,7.69,2.25,1.62,2.4,2.8,.61,4.99-6.8,8.32-13.62,16.63-20.43,24.95l-1.28,.41,.72,.72,.63-.36Z"/><path class="f" d="M298.14,79.95c-1.48,5.38-3.01,10.32-4.18,15.36-.82,3.53-1.31,7.16-1.61,10.78-.22,2.64,.51,5.14,2.85,6.88,.5,.37,.81,1.01,1.34,1.7-2.98,4.26-5.51,8.74-9.17,12.47-4.77-.99-8.22-3.62-11.48-6.88-1.6,.37-3.25,.82-4.93,1.12-14.8,2.66-28.93-6.62-32.03-20.23-3.16-13.92,8.74-32.46,27.08-29.78,4.07,.59,7.82,1.88,10.95,3.5,6.89,.04,12.85,2.34,19.01,3.56,.74,.15,1.36,.94,2.17,1.53Zm-24.75,11.27c-2.28-3.43-6.13-4.57-9.69-2.82-4.22,2.08-6.47,7.85-4.79,12.34,1.36,3.64,5.57,6.95,12.62,5,.6-4.72,1.21-9.46,1.86-14.52Z"/><path class="e" d="M107.67,86.79c-1.59-3.76-2.61-9.09-2.22-11.68,2.15-.54,4.39-1.1,6.61-1.66-.62-2.99-1.85-4.11-4.49-4.41-4.11-.47-7.78,2.81-8.23,7.46-.77,7.9,4.26,13.08,11.75,14.39,1.32,.23,2.68,.22,4,.47,.89,.17,1.72,.6,2.86,1.02-.2,1.32-.15,2.51-.58,3.49-1.01,2.37-2.27,4.64-3.38,6.97-1.05,2.22-2.97,3.07-5.19,2.87-7.59-.68-14.75-2.63-20.37-8.19-6.87-6.8-9.41-15.04-7.34-24.43,2.56-11.57,12.06-19.09,23.92-19.6,5.74-.25,11.24,.2,16.47,2.92,6,3.11,8.85,8.3,10.02,14.57,.44,2.39,.28,4.92,.18,7.38-.12,2.93-1.77,4.97-4.31,6.34-3.4,1.83-7.16,2.08-10.87,2.39-2.93,.25-5.91,.66-8.84-.29Z"/><path class="f" d="M399.43,87.31c-.08,.97-.2,2.3-.32,3.64-.26,2.87-2.05,4.55-4.63,5.27-12.02,3.38-24.18,6.14-36.55,7.92-5.6,.81-7.9-.75-9.75-6.11-2.21-6.37-3.68-12.9-4.21-19.62-.12-1.52-.02-3.08,.23-4.59,.48-2.93,2.62-4.39,5.26-5.08,5.29-1.38,10.59-2.75,15.93-3.89,6.47-1.39,12.99-2.56,19.5-3.78,5.26-.99,7.68,.25,9.74,5.21,2.75,6.61,4.11,13.55,4.79,21.03Zm-31.57,3.13c4.23-3.46,8.21-6.72,12.53-10.26-5.34-1.5-10.22-2.88-15.64-4.4,1.1,5.19,2.06,9.73,3.11,14.66Z"/><path class="e" d="M305.25,79.21c6.39-1.49,12.77-2.97,18.93-4.4,2.07,2.66,11.18,41.57,10.62,44.42-3.48,1.62-17.18,4.63-19.35,4.26-1.69-3.3-10.46-40.63-10.2-44.27Z"/><path class="f" d="M128.13,125.53c.07-1.13-.03-2.07,.19-2.93,3.26-12.8,6.55-25.6,9.88-38.39,.27-1.02,.95-1.93,1.47-2.95,6.51,1.69,12.61,3.28,18.93,4.92-.03,1.16,.12,2.12-.1,2.99-3.39,13.17-6.82,26.32-10.26,39.47-.09,.36-.3,.69-.56,1.28-.66,.06-1.43,.33-2.09,.16-5.66-1.43-11.31-2.94-17.45-4.56Z"/><path class="f" d="M333.1,18.32c3.16-3.09,6.1-5.98,9.22-9.03,11.39,.05,22.9,.11,34.66,.17-.06,8.69-.11,17.1-.17,25.51-5.49,5.42-10.89,10.74-16.34,16.11l-7.51,.21c-2.92,2.85-5.85,5.71-9.04,8.82l-.25-9.08-10.69,.3c.04-11.28,.08-22.08,.12-33.01Zm11.09-5.37c-.08,9.1-.15,17.98-.22,27.1,2.8,.13,5.43,.26,8.18,.39l.16,5.91c2.28-2.21,4.27-4.13,6.13-5.94l7.46-.21c2.37-2.31,4.76-4.65,7.26-7.09,.02-6.58,.04-13.18,.07-20.02-9.82-.05-19.3-.1-29.04-.14Z"/><path class="e" d="M311.61,73.22c-6.38,.46-13.02-4.72-13.32-12.19-.28-6.85,4.45-13.17,12.43-13.41,8.64-.26,13.17,6.29,13.34,12.5,.21,7.66-6.27,13.21-12.45,13.1Z"/><path class="f" d="M141.7,67.34c-.16-7.16,5.32-12.82,12.53-12.94,7.04-.12,12.78,5.32,12.96,12.27,.18,7.06-5.42,12.97-12.45,13.15-7.11,.18-12.88-5.35-13.04-12.49Z"/><path class="e" d="M260.32,134.55l.09,3.1c2.94,.36,5.83,.72,8.81,1.08l.69-2.89c.91,.04,1.83,.09,2.9,.14,.19-.95,.38-1.85,.6-2.94,1.02,.08,1.94,.16,3.11,.25-.17,1.15-.3,2.06-.44,3.04l-2.93,.08c-.21,.89-.41,1.76-.65,2.78l2.87,.46,.08,2.98,2.54,.83,.08,2.77c.89,.27,1.76,.53,2.91,.87l-1.23,9.13-3.13-.28c.25-2.04,.48-3.91,.73-6.03-.81-.21-1.68-.44-2.85-.75-.36,2.14-.69,4.07-1.04,6.16l-2.87,.08c-.25,.84-.48,1.63-.81,2.79-1.91-.22-3.84-.44-5.94-.68,.07-1.08,.13-1.89,.2-3.03,2.04,.17,3.91,.32,6.07,.5l.78-2.96c-5.34-.7-10.39-1.37-15.63-2.06-.13,1.16-.21,1.99-.32,2.97l5.93,.98-.15,3.15c-2.16-.27-4.09-.5-6.14-.76l-.08-3.03-2.78-.82c.21-1.91,.43-3.85,.67-5.97-.95-.19-1.84-.37-2.89-.59-.36,2.19-.68,4.15-1.04,6.34-1-.16-1.9-.31-3.05-.5,.43-3.15,.83-6.13,1.24-9.21l2.9-.08c.29-.94,.56-1.82,.89-2.86l2.81,.26c.18-.91,.35-1.73,.54-2.7l2.93-.08c.15-.93,.27-1.74,.42-2.69l-2.94-.99c.13-.86,.26-1.67,.4-2.58l3.03-.08-.18,3.08,2.85,.73Zm-1.03,9.47l-.09-3.31c-.93-.07-1.74-.13-2.62-.19l-.53,2.9,3.24,.61Zm9.35,1.28l2.94-.08,.45-2.73-3.08-.19-.31,3Z"/><path class="f" d="M338.91,139.07l.21,7.43c-1.7,.31-3.18,.59-4.87,.9-.41-3.78-.82-7.5-1.27-11.59-1.38,.56-2.3,.94-3.48,1.42-.64-1.15-1.27-2.28-2.04-3.68,1.43-.84,2.72-1.6,4.12-2.42-.07-.84-.14-1.66-.24-2.75,1.48-.41,2.94-.82,4.55-1.27,.45,.29,.98,.63,1.5,.96,2.76-1.4,5.48-2.78,8.36-4.24,.71,1.28,1.31,2.34,2.08,3.74-3.36,1.83-6.6,3.59-9.98,5.43l.54,2.03c2.06-.79,3.91-1.53,5.77-2.21,3.44-1.26,4.72-.44,5.16,3.27,.06,.47,.09,.94,.15,1.48l3.19-.33c.11,.93,.22,1.67,.27,2.42,.03,.56-.03,1.12-.06,1.77-1.07,.35-2.05,.66-3.18,1.03-.26,.61-.55,1.3-.94,2.22-1.43,.34-2.99,.72-4.66,1.12-.21-.68-.36-1.19-.56-1.85l-2.95,.08c-.1-1.14-.18-2.14-.29-3.35,1.28-.45,2.42-.84,3.77-1.31,.04-.44,.1-.97,.21-2.07-1.85,.61-3.41,1.12-5.35,1.76Z"/><path class="f" d="M308.67,143.07c-.09,1.49-.17,2.69-.26,4.16-1.86-.09-3.45-.17-5.22-.25-.28,1.99-.56,3.92-.87,6.1-1.69-.19-3.17-.35-4.8-.53l-.17-6.17c-2.03-.27-4.16-.55-6.43-.84l.37-4.18c1.99,.12,3.94,.23,6.08,.36,.04-.79,.07-1.41,.1-2.19-1.55-.36-3.01-.69-4.81-1.1,.23-1.35,.45-2.61,.71-4.11l3.87,.48c.21-.86,.41-1.66,.66-2.71l5.15,.23c.13,1.14,.26,2.24,.42,3.61,1.35,.34,2.79,.7,4.6,1.15-.18,1.31-.37,2.63-.57,4.1-1.55-.21-2.75-.38-4.1-.56l.05,1.8c1.62,.21,3.23,.41,5.22,.67Z"/><path class="e" d="M361.27,136.14c-1.73,.42-3.43,.83-5.67,1.38,.72-7.88-4.07-13.3-7.17-19.73,1.7-1.01,3.28-1.95,4.81-2.86,5.44,6.61,8.56,14.73,8.04,21.21Z"/><path class="e" d="M313.01,146.34c-.23-1.75-.44-3.3-.7-5.29,5.69-.75,11.13-1.46,16.95-2.23,.27,1.83,.49,3.37,.76,5.22-5.73,.78-11.19,1.52-17.01,2.31Z"/><path class="e" d="M360.78,126.33c.5-1.81,.89-3.23,1.36-4.93,2.86,.59,5.51,1.13,8.57,1.76-.42,1.89-.79,3.56-1.24,5.6-3.03-.85-5.64-1.58-8.7-2.43Z"/><path class="e" d="M50.6,93.96l-.63,.36-.72-.72,1.28-.41,.07,.77Z"/><path class="c" d="M198.29,89.27c-.72-6.07-1.43-12.12-2.15-18.23,4.49-1.5,8.53-1.97,12.47,.57,5.72,3.68,6.27,13.74-.35,17.12-2.59,1.32-6.22,1.64-9.97,.53Z"/><path class="c" d="M273.38,91.22c-.65,5.06-1.26,9.8-1.86,14.52-7.05,1.95-11.26-1.36-12.62-5-1.68-4.49,.57-10.26,4.79-12.34,3.55-1.75,7.41-.61,9.69,2.82Z"/><path class="c" d="M367.86,90.44c-1.05-4.93-2.01-9.47-3.11-14.66,5.42,1.53,10.3,2.9,15.64,4.4-4.33,3.54-8.3,6.79-12.53,10.26Z"/><path class="c" d="M344.2,12.95c9.74,.05,19.22,.1,29.04,.14-.02,6.84-.04,13.44-.07,20.02-2.5,2.44-4.9,4.78-7.26,7.09l-7.46,.21c-1.87,1.81-3.85,3.73-6.13,5.94l-.16-5.91c-2.75-.13-5.38-.26-8.18-.39,.08-9.12,.15-17.99,.22-27.1Zm13.54,17.28l-.3-10.7-3.27,.09c-.07,3.62-.14,7.1-.22,10.72l3.79-.1Zm10,.07l-.3-10.82-3.38,.09,.29,10.61,3.38,.11Z"/><path class="c" d="M259.28,144.02l-3.24-.61,.53-2.9c.88,.06,1.69,.13,2.62,.19l.09,3.31Z"/><path class="c" d="M268.64,145.31l.31-3,3.08,.19-.45,2.73-2.94,.08Z"/><path class="e" d="M357.74,30.23l-3.79,.1c.07-3.61,.14-7.09,.22-10.72l3.27-.09,.3,10.7Z"/><path class="e" d="M367.74,30.3l-3.38-.11-.29-10.61,3.38-.09,.3,10.82Z"/></g></svg>